<svg xmlns="http://www.w3.org/2000/svg" xmlns:xlink="http://www.w3.org/1999/xlink" id="Capa_1" x="0px" y="0px" viewBox="0 0 500 500" style="enable-background:new 0 0 500 500;" xml:space="preserve"><style type="text/css">	.st0{fill:#96BCE5;}	.st1{clip-path:url(#SVGID_00000028293389285023033970000009576526279349472417_);fill:#3D75BA;}	.st2{fill:#3D75BA;}			.st3{clip-path:url(#SVGID_00000169523863405724927080000002316061180491850883_);fill:url(#SVGID_00000057128013713373848240000012295056972260004536_);}	.st4{clip-path:url(#SVGID_00000083807938995984377050000009384473108822567319_);fill:#3D75BA;}</style><g>	<polygon class="st0" points="280.44,129.84 300.47,189.96 320.23,189.96 280.19,310.21 340.31,310.21 380.36,189.96 440.47,189.96   460.5,129.84  "></polygon>	<g>		<defs>			<rect id="SVGID_1_" x="39.5" y="129.84" width="421" height="240.32"></rect>		</defs>		<clipPath id="SVGID_00000159447393895895634090000005042513252083627651_">			<use xlink:href="#SVGID_1_" style="overflow:visible;"></use>		</clipPath>		<path style="clip-path:url(#SVGID_00000159447393895895634090000005042513252083627651_);fill:#3D75BA;" d="M396,278.76h3.21   c3.75,0,6.78-1.28,6.78-4.39c0-2.74-1.96-4.57-6.25-4.57c-1.78,0-3.03,0.18-3.75,0.37V278.76z M395.82,295.58h-6.78V265.6   c2.67-0.37,6.43-0.91,11.24-0.91c5.53,0,8.03,0.91,9.99,2.38c1.78,1.28,3.03,3.47,3.03,6.4c0,3.65-2.67,6.03-6.07,7.13v0.37   c2.85,0.91,4.28,3.29,5.17,7.31c0.89,4.57,1.61,6.22,2.14,7.31h-7.14c-0.89-1.1-1.43-3.65-2.32-7.31   c-0.53-3.11-2.32-4.57-6.07-4.57h-3.21V295.58z M400.28,256.09c-12.67,0-22.49,10.78-22.49,23.95c0,13.35,9.82,23.95,22.85,23.95   c12.67,0.19,22.31-10.6,22.31-23.76c0-13.35-9.64-24.13-22.49-24.13H400.28z M400.64,250.06c16.6,0,29.8,13.16,29.8,29.98   c0,16.82-13.21,30.16-29.98,30.16c-16.77,0-30.16-13.34-30.16-30.16c0-16.82,13.39-29.98,30.16-29.98H400.64z"></path>	</g>	<path class="st2" d="M340.31,310.21h0.21l-0.1-0.32L340.31,310.21z M220.27,129.84l-30.15,90.53l-30.15-90.53H99.82L39.75,310.21  h60.12l30.02-90.15l30.02,90.15h0.28h59.84h0.28l30.04-90.19l29.93,89.87l30.06-90.26l-29.91-89.8H220.27z"></path>	<g>		<defs>			<path id="SVGID_00000106861127787646596650000013816297959637074086_" d="M340.31,310.21h0.21l-0.11-0.32L340.31,310.21z     M220.27,129.84l-30.15,90.53l-30.15-90.53H99.82L39.75,310.21h60.12l30.02-90.15l30.02,90.15h0.28h59.84h0.28l30.04-90.19    l29.93,89.87l30.06-90.26l-29.91-89.8H220.27z"></path>		</defs>		<clipPath id="SVGID_00000157298264236242306010000015723931376774020497_">			<use xlink:href="#SVGID_00000106861127787646596650000013816297959637074086_" style="overflow:visible;"></use>		</clipPath>					<linearGradient id="SVGID_00000116205097728882479350000011669946229960376448_" gradientUnits="userSpaceOnUse" x1="-53.3228" y1="674.7147" x2="-50.6375" y2="674.7147" gradientTransform="matrix(0 67.5744 67.5744 0 -45403.3125 3733.0935)">			<stop offset="0" style="stop-color:#3D75BA"></stop>			<stop offset="0.9763" style="stop-color:#322C68"></stop>			<stop offset="1" style="stop-color:#322C68"></stop>		</linearGradient>					<rect x="39.75" y="129.84" style="clip-path:url(#SVGID_00000157298264236242306010000015723931376774020497_);fill:url(#SVGID_00000116205097728882479350000011669946229960376448_);" width="300.77" height="180.37"></rect>	</g>	<g>		<defs>			<rect id="SVGID_00000110471337291933058870000015210727969065086902_" x="39.5" y="129.84" width="421" height="240.32"></rect>		</defs>		<clipPath id="SVGID_00000051345843617841486920000016333128194100502933_">			<use xlink:href="#SVGID_00000110471337291933058870000015210727969065086902_" style="overflow:visible;"></use>		</clipPath>		<path style="clip-path:url(#SVGID_00000051345843617841486920000016333128194100502933_);fill:#3D75BA;" d="M430.1,344.11   c0-4.9-1.51-9.28-8.57-9.28c-5.56,0-9.28,2.45-9.23,8.34c0.05,3.39,0.33,5.42,6.93,9.47c4.9,3.02,7.96,4.34,7.96,8.95   c0,3.91-1.93,6.03-5.89,6.03c-6.08,0-6.36-3.91-6.36-7.68h-3.11c-0.28,6.64,2.69,10.22,9.33,10.22c5.94,0,9.05-2.97,9.05-9.05   c0-6.6-4.29-7.49-8.48-10.5c-3.86-2.78-6.41-2.92-6.41-7.96c0-4,2.31-5.28,5.98-5.28c4.62,0,5.65,2.54,5.75,6.74H430.1z    M402.49,366.63c-1.6,0.61-3.77,0.99-6.36,0.99c-7.35,0-7.26-6.55-7.26-15.12c0-8.57-0.09-15.12,7.26-15.12   c4.76,0,6.69,2.35,6.69,6.83h3.01c0.14-6.6-3.2-9.37-9.7-9.37c-11.07,0-10.27,11.07-10.27,17.67s-0.8,17.67,10.27,17.67   c3.2,0,6.36-0.47,9.38-1.41v-17.01h-9.9v2.55h6.88V366.63z M360.89,369.5v-30.1l0.09-0.09l13.85,30.2h4.57v-34.01h-3.02v29.77   l-0.09,0.09l-13.8-29.87h-4.62v34.01H360.89z M347.51,369.5h3.02v-34.01h-3.02V369.5z M331.83,369.5h3.02v-31.47h8.29v-2.55h-19.6   v2.55h8.29V369.5z M310.91,369.5h3.02v-31.47h8.29v-2.55h-19.6v2.55h8.29V369.5z M295.22,369.5h3.02v-34.01h-3.02V369.5z    M276.38,369.5h3.01V353.3h10.55v-2.54h-10.55v-12.72h11.36v-2.55h-14.37V369.5z M240.05,369.5h7.77   c10.27,0,11.92-5.56,11.92-16.87c0-11.59-1.18-17.15-10.7-17.15h-9V369.5z M243.07,338.03h3.96c8.39,0,9.7,2.82,9.7,12.58   c0,13.9-0.89,16.35-9.99,16.35h-3.67V338.03z M214.38,369.5v-30.1l0.09-0.09l13.85,30.2h4.57v-34.01h-3.02v29.77l-0.09,0.09   l-13.81-29.87h-4.62v34.01H214.38z M188.75,358.01l5.75-19.22h0.09l5.79,19.22H188.75z M192.89,335.49l-10.74,34.01h3.02   l2.69-8.95h13.33l2.73,8.95h3.16l-10.6-34.01H192.89z M168.4,344.11c0-4.9-1.51-9.28-8.57-9.28c-5.56,0-9.28,2.45-9.23,8.34   c0.05,3.39,0.33,5.42,6.93,9.47c4.9,3.02,7.96,4.34,7.96,8.95c0,3.91-1.93,6.03-5.89,6.03c-6.08,0-6.36-3.91-6.36-7.68h-3.11   c-0.28,6.64,2.69,10.22,9.33,10.22c5.94,0,9.05-2.97,9.05-9.05c0-6.6-4.29-7.49-8.48-10.5c-3.86-2.78-6.41-2.92-6.41-7.96   c0-4,2.31-5.28,5.99-5.28c4.62,0,5.65,2.54,5.75,6.74H168.4z M130.15,335.49v34.01h15.73v-2.54h-12.72V353.3h11.83v-2.54h-11.83   v-12.72h12.39v-2.55H130.15z M114.83,365.92h-0.09l-8.06-30.43h-3.2l9.47,34.01h3.77l9.42-34.01h-2.92L114.83,365.92z    M104.51,369.5v-2.54H93.25v-31.47h-3.02v34.01H104.51z M68.1,358.01l5.75-19.22h0.09l5.79,19.22H68.1z M72.24,335.49L61.5,369.5   h3.02l2.69-8.95h13.33l2.73,8.95h3.16l-10.6-34.01H72.24z M50.85,365.92h-0.09l-8.06-30.43h-3.2l9.47,34.01h3.77l9.42-34.01h-2.92   L50.85,365.92z"></path>	</g></g></svg>
